<svg width="20" height="18" viewBox="0 0 20 18" fill="none" xmlns="http://www.w3.org/2000/svg">
<path d="M0.5 14.25C0.5 14.991 0.591377 15.5202 0.78918 15.9146C0.977772 16.2907 1.28584 16.5891 1.82033 16.8259C2.37062 17.0698 3.14878 17.2424 4.24878 17.3507C5.34394 17.4586 6.72434 17.5 8.46154 17.5C10.1987 17.5 11.5791 17.4586 12.6743 17.3507C13.7743 17.2424 14.5525 17.0698 15.1027 16.8259C15.6372 16.5891 15.9453 16.2907 16.1339 15.9146C16.3317 15.5202 16.4231 14.991 16.4231 14.25C16.4231 13.509 16.3317 12.9798 16.1339 12.5854C15.9453 12.2093 15.6372 11.9109 15.1027 11.6741C14.5525 11.4302 13.7743 11.2576 12.6743 11.1493C11.5791 11.0414 10.1987 11 8.46154 11C6.72434 11 5.34394 11.0414 4.24878 11.1493C3.14878 11.2576 2.37062 11.4302 1.82033 11.6741C1.28584 11.9109 0.977772 12.2093 0.78918 12.5854C0.591377 12.9798 0.5 13.509 0.5 14.25Z" stroke="white" stroke-linecap="round" stroke-linejoin="round"/>
<path d="M4.34638 4.5C4.34638 6.69728 6.17689 8.5 8.46176 8.5C10.7466 8.5 12.5771 6.69728 12.5771 4.5C12.5771 2.30272 10.7466 0.5 8.46176 0.5C6.17689 0.5 4.34638 2.30272 4.34638 4.5Z" stroke="white"/>
<path d="M16.9229 5.25V7.5M16.9229 9.75V7.5M16.9229 7.5H19.2306H14.6152" stroke="white" stroke-linecap="round" stroke-linejoin="round"/>
</svg>
