<svg width="30" height="30" viewBox="0 0 30 30" fill="none" xmlns="http://www.w3.org/2000/svg">
<g clip-path="url(#clip0_552_3066)">
<path d="M9.375 2.5C7.1375 3.9375 5.625 6.475 5.625 9.375C5.625 12.275 7.1375 14.8125 9.4125 16.25C5.575 16.25 2.5 13.175 2.5 9.375C2.5 7.55164 3.22433 5.80295 4.51364 4.51364C5.80295 3.22433 7.55164 2.5 9.375 2.5ZM16.1125 7.4125L14.2625 6.25L12.4625 7.5L12.9875 5.375L11.25 4.05L13.4375 3.9L14.1625 1.8375L15 3.875L17.1625 3.9125L15.475 5.325L16.1125 7.4125ZM11.9875 11.925L10.5375 11.0125L9.1375 11.9875L9.5625 10.3375L8.2 9.3L9.9 9.1875L10.4625 7.575L11.1 9.1625L12.8 9.2L11.4875 10.2875L11.9875 11.925Z" fill="white"/>
<g clip-path="url(#clip1_552_3066)">
<path d="M23.8375 4.375L25.625 6.1625L6.1625 25.625L4.375 23.8375L23.8375 4.375Z" fill="white"/>
<path d="M23.75 16.875C23.75 18.6984 23.0256 20.4471 21.7363 21.7364C20.447 23.0257 18.6983 23.75 16.875 23.75C15.35 23.75 13.9375 23.25 12.8 22.4125L22.4125 12.8C23.25 13.9375 23.75 15.35 23.75 16.875ZM18.25 25.1L21.7125 23.6625L21.4125 27.85L18.25 25.1ZM23.6625 21.725L25.1 18.2625L27.85 21.4375L23.6625 21.725ZM25.1 15.525L23.675 12.05L27.85 12.35L25.1 15.525ZM12.0375 23.6625L15.5 25.1L12.3375 27.8375L12.0375 23.6625Z" fill="#4F4F4F"/>
</g>
</g>
<defs>
<clipPath id="clip0_552_3066">
<rect width="30" height="30" fill="white"/>
</clipPath>
<clipPath id="clip1_552_3066">
<rect width="30" height="30" fill="white"/>
</clipPath>
</defs>
</svg>
