<svg width="18" height="18" viewBox="0 0 18 18" fill="none" xmlns="http://www.w3.org/2000/svg">
<path d="M13.8879 9.58462L14.3831 9.65354L13.8879 9.58462ZM13.6911 10.9984L14.1864 11.0673L13.6911 10.9984ZM4.30885 10.9984L4.80408 10.9295L4.30885 10.9984ZM4.1121 9.58462L3.61687 9.65354L4.1121 9.58462ZM6.88773 16.3026L6.69334 16.7633H6.69334L6.88773 16.3026ZM4.85631 13.9202L5.32564 13.7478L4.85631 13.9202ZM13.1437 13.9202L13.613 14.0927L13.1437 13.9202ZM11.1123 16.3026L10.9179 15.842L11.1123 16.3026ZM4.24776 6.70271C4.22164 6.4278 3.97761 6.22612 3.70271 6.25224C3.4278 6.27836 3.22612 6.52239 3.25224 6.79729L4.24776 6.70271ZM14.7478 6.79729C14.7739 6.52239 14.5722 6.27836 14.2973 6.25224C14.0224 6.22612 13.7784 6.4278 13.7522 6.70271L14.7478 6.79729ZM15 5.75C15.2761 5.75 15.5 5.52614 15.5 5.25C15.5 4.97386 15.2761 4.75 15 4.75V5.75ZM3 4.75C2.72386 4.75 2.5 4.97386 2.5 5.25C2.5 5.52614 2.72386 5.75 3 5.75V4.75ZM7 13.5C7 13.7761 7.22386 14 7.5 14C7.77614 14 8 13.7761 8 13.5H7ZM8 7.5C8 7.22386 7.77614 7 7.5 7C7.22386 7 7 7.22386 7 7.5H8ZM10 13.5C10 13.7761 10.2239 14 10.5 14C10.7761 14 11 13.7761 11 13.5H10ZM11 7.5C11 7.22386 10.7761 7 10.5 7C10.2239 7 10 7.22386 10 7.5H11ZM12 5.25V5.75H12.5V5.25H12ZM6 5.25H5.5V5.75H6V5.25ZM13.3927 9.5157L13.1959 10.9295L14.1864 11.0673L14.3831 9.65354L13.3927 9.5157ZM4.80408 10.9295L4.60733 9.5157L3.61687 9.65354L3.81362 11.0673L4.80408 10.9295ZM9 16C7.85874 16 7.43423 15.9905 7.08213 15.842L6.69334 16.7633C7.2767 17.0095 7.94857 17 9 17V16ZM3.81362 11.0673C4.02385 12.5779 4.13711 13.4126 4.38699 14.0927L5.32564 13.7478C5.12211 13.1938 5.02152 12.4919 4.80408 10.9295L3.81362 11.0673ZM7.08213 15.842C6.36998 15.5414 5.71667 14.8121 5.32564 13.7478L4.38699 14.0927C4.84383 15.3361 5.65615 16.3256 6.69334 16.7633L7.08213 15.842ZM13.1959 10.9295C12.9785 12.4919 12.8779 13.1938 12.6744 13.7478L13.613 14.0927C13.8629 13.4126 13.9761 12.5779 14.1864 11.0673L13.1959 10.9295ZM9 17C10.0514 17 10.7233 17.0095 11.3067 16.7633L10.9179 15.842C10.5658 15.9905 10.1413 16 9 16V17ZM12.6744 13.7478C12.2833 14.8121 11.63 15.5414 10.9179 15.842L11.3067 16.7633C12.3438 16.3256 13.1562 15.3361 13.613 14.0927L12.6744 13.7478ZM4.60733 9.5157C4.44081 8.31917 4.31618 7.42285 4.24776 6.70271L3.25224 6.79729C3.3232 7.54414 3.45154 8.46552 3.61687 9.65354L4.60733 9.5157ZM14.3831 9.65354C14.5485 8.46551 14.6768 7.54414 14.7478 6.79729L13.7522 6.70271C13.6838 7.42285 13.5592 8.31917 13.3927 9.5157L14.3831 9.65354ZM15 4.75H3V5.75H15V4.75ZM8 13.5V7.5H7V13.5H8ZM11 13.5V7.5H10V13.5H11ZM11.5 4.5V5.25H12.5V4.5H11.5ZM12 4.75H6V5.75H12V4.75ZM6.5 5.25V4.5H5.5V5.25H6.5ZM9 2C10.3807 2 11.5 3.11929 11.5 4.5H12.5C12.5 2.567 10.933 1 9 1V2ZM9 1C7.067 1 5.5 2.567 5.5 4.5H6.5C6.5 3.11929 7.61929 2 9 2V1Z" fill="black"/>
</svg>
