<?xml version="1.0"?>
<svg version="1.1" id="圖層_1" xmlns="http://www.w3.org/2000/svg" xmlns:xlink="http://www.w3.org/1999/xlink" x="0" y="0" viewBox="0 0 100 100" xml:space="preserve"><g><defs><circle id="SVGID_33_" cx="50" cy="50" r="40"/></defs><clipPath id="SVGID_2_"><use xlink:href="#SVGID_33_" overflow="visible"/></clipPath><path clip-path="url(#SVGID_2_)" fill="#da0000" d="M3.667 63.333h93V90h-93z"/><path fill="#f7f7f7" clip-path="url(#SVGID_2_)" d="M3.667 36.667h93v26.667h-93z"/><path clip-path="url(#SVGID_2_)" fill="#239f40" d="M3.667 10h93v26.667h-93z"/><path d="M7.289 35.422h-.445v-1.778h2.933v1.244h2.044v-.8h-1.333v-.444h1.778v1.689H9.333v-1.244H7.289v1.333zm11.2-.089h-2.933v-1.244h-2.044v.8h1.333v.444h-1.778v-1.689h2.489v-1.333H16v2.578h.8v-2.578h.444v2.578h.8v-2.578h.444v3.022zm-9.867 0H8v-.444h.622v.444zm6.222-2.489H6.756V32.4h8.089v.444z" clip-path="url(#SVGID_2_)" fill="#fff"/><path d="M18.578 36.889h-5.6v-.444h5.6v.444zm-6.222 0h-5.6v-.444h5.6v.444z" clip-path="url(#SVGID_2_)" fill="#fff"/><path d="M18.578 63.556h-5.6v-.444h5.6v.444zm-6.222 0h-5.6v-.444h5.6v.444z" clip-path="url(#SVGID_2_)" fill="#fff"/><path d="M7.289 67.689h-.445v-1.778h2.933v1.245h2.044v-.8h-1.333v-.444h1.778V67.6H9.333v-1.245H7.289v1.334zm11.2-.089h-2.933v-1.245h-2.044v.8h1.333v.445h-1.778v-1.689h2.489v-1.333H16v2.578h.8v-2.578h.444v2.578h.8v-2.578h.444V67.6zm-9.867 0H8v-.444h.622v.444zm6.222-2.489H6.756v-.444h8.089v.444z" clip-path="url(#SVGID_2_)" fill="#fff"/><path d="M19.733 35.422h-.444v-1.778h2.933v1.244h2.044v-.8h-1.333v-.444h1.778v1.689h-2.933v-1.244h-2.044v1.333zm11.2-.089H28v-1.244h-2.044v.8h1.333v.444h-1.778v-1.689H28v-1.333h.444v2.578h.8v-2.578h.444v2.578h.8v-2.578h.444v3.022zm-9.866 0h-.622v-.444h.622v.444zm6.222-2.489H19.2V32.4h8.089v.444z" clip-path="url(#SVGID_2_)" fill="#fff"/><path d="M31.022 36.889h-5.6v-.444h5.6v.444zm-6.222 0h-5.6v-.444h5.6v.444z" clip-path="url(#SVGID_2_)" fill="#fff"/><path d="M31.022 63.556h-5.6v-.444h5.6v.444zm-6.222 0h-5.6v-.444h5.6v.444z" clip-path="url(#SVGID_2_)" fill="#fff"/><path d="M19.733 67.689h-.444v-1.778h2.933v1.245h2.044v-.8h-1.333v-.444h1.778V67.6h-2.933v-1.245h-2.044v1.334zm11.2-.089H28v-1.245h-2.044v.8h1.333v.445h-1.778v-1.689H28v-1.333h.444v2.578h.8v-2.578h.444v2.578h.8v-2.578h.444V67.6zm-9.866 0h-.622v-.444h.622v.444zm6.222-2.489H19.2v-.444h8.089v.444z" clip-path="url(#SVGID_2_)" fill="#fff"/><path d="M32.178 35.422h-.444v-1.778h2.933v1.244h2.044v-.8h-1.333v-.444h1.778v1.689h-2.933v-1.244h-2.044v1.333zm11.2-.089h-2.933v-1.244H38.4v.8h1.333v.444h-1.778v-1.689h2.489v-1.333h.444v2.578h.8v-2.578h.444v2.578h.8v-2.578h.444v3.022zm-9.867 0h-.622v-.444h.622v.444zm6.222-2.489h-8.089V32.4h8.089v.444z" clip-path="url(#SVGID_2_)" fill="#fff"/><path d="M43.467 36.889h-5.6v-.444h5.6v.444zm-6.223 0h-5.6v-.444h5.6v.444z" clip-path="url(#SVGID_2_)" fill="#fff"/><path d="M43.467 63.556h-5.6v-.444h5.6v.444zm-6.223 0h-5.6v-.444h5.6v.444z" clip-path="url(#SVGID_2_)" fill="#fff"/><path d="M32.178 67.689h-.444v-1.778h2.933v1.245h2.044v-.8h-1.333v-.444h1.778V67.6h-2.933v-1.245h-2.044v1.334zm11.2-.089h-2.933v-1.245H38.4v.8h1.333v.445h-1.778v-1.689h2.489v-1.333h.444v2.578h.8v-2.578h.444v2.578h.8v-2.578h.444V67.6zm-9.867 0h-.622v-.444h.622v.444zm6.222-2.489h-8.089v-.444h8.089v.444z" clip-path="url(#SVGID_2_)" fill="#fff"/><path d="M44.622 35.422h-.444v-1.778h2.933v1.244h2.044v-.8h-1.333v-.444H49.6v1.689h-2.933v-1.244h-2.044v1.333zm11.2-.089h-2.933v-1.244h-2.044v.8h1.333v.444H50.4v-1.689h2.489v-1.333h.444v2.578h.8v-2.578h.444v2.578h.8v-2.578h.444v3.022zm-9.866 0h-.622v-.444h.622v.444zm6.222-2.489h-8.089V32.4h8.089v.444z" clip-path="url(#SVGID_2_)" fill="#fff"/><path d="M55.911 36.889h-5.6v-.444h5.6v.444zm-6.222 0h-5.6v-.444h5.6v.444z" clip-path="url(#SVGID_2_)" fill="#fff"/><path d="M55.911 63.556h-5.6v-.444h5.6v.444zm-6.222 0h-5.6v-.444h5.6v.444z" clip-path="url(#SVGID_2_)" fill="#fff"/><path d="M44.622 67.689h-.444v-1.778h2.933v1.245h2.044v-.8h-1.333v-.444H49.6V67.6h-2.933v-1.245h-2.044v1.334zm11.2-.089h-2.933v-1.245h-2.044v.8h1.333v.445H50.4v-1.689h2.489v-1.333h.444v2.578h.8v-2.578h.444v2.578h.8v-2.578h.444V67.6zm-9.866 0h-.622v-.444h.622v.444zm6.222-2.489h-8.089v-.444h8.089v.444z" clip-path="url(#SVGID_2_)" fill="#fff"/><path d="M57.067 35.422h-.444v-1.778h2.933v1.244H61.6v-.8h-1.333v-.444h1.778v1.689h-2.933v-1.244h-2.044v1.333zm11.2-.089h-2.933v-1.244H63.29v.8h1.333v.444h-1.778v-1.689h2.489v-1.333h.444v2.578h.8v-2.578h.444v2.578h.8v-2.578h.444v3.022zm-9.867 0h-.622v-.444h.622v.444zm6.222-2.489h-8.089V32.4h8.089v.444z" clip-path="url(#SVGID_2_)" fill="#fff"/><path d="M68.355 36.889h-5.6v-.444h5.6v.444zm-6.222 0h-5.6v-.444h5.6v.444z" clip-path="url(#SVGID_2_)" fill="#fff"/><path d="M68.355 63.556h-5.6v-.444h5.6v.444zm-6.222 0h-5.6v-.444h5.6v.444z" clip-path="url(#SVGID_2_)" fill="#fff"/><path d="M57.067 67.689h-.444v-1.778h2.933v1.245H61.6v-.8h-1.333v-.444h1.778V67.6h-2.933v-1.245h-2.044v1.334zm11.2-.089h-2.933v-1.245H63.29v.8h1.333v.445h-1.778v-1.689h2.489v-1.333h.444v2.578h.8v-2.578h.444v2.578h.8v-2.578h.444V67.6zm-9.867 0h-.622v-.444h.622v.444zm6.222-2.489h-8.089v-.444h8.089v.444z" clip-path="url(#SVGID_2_)" fill="#fff"/><path d="M69.511 35.422h-.444v-1.778H72v1.244h2.044v-.8h-1.333v-.444h1.778v1.689h-2.933v-1.244h-2.044v1.333zm11.2-.089h-2.933v-1.244h-2.044v.8h1.333v.444h-1.778v-1.689h2.489v-1.333h.444v2.578h.8v-2.578h.444v2.578h.8v-2.578h.444v3.022zm-9.867 0h-.622v-.444h.622v.444zm6.223-2.489h-8.089V32.4h8.089v.444z" clip-path="url(#SVGID_2_)" fill="#fff"/><path d="M80.8 36.889h-5.6v-.444h5.6v.444zm-6.222 0h-5.6v-.444h5.6v.444z" clip-path="url(#SVGID_2_)" fill="#fff"/><path d="M80.8 63.556h-5.6v-.444h5.6v.444zm-6.222 0h-5.6v-.444h5.6v.444z" clip-path="url(#SVGID_2_)" fill="#fff"/><path d="M69.511 67.689h-.444v-1.778H72v1.245h2.044v-.8h-1.333v-.444h1.778V67.6h-2.933v-1.245h-2.044v1.334zm11.2-.089h-2.933v-1.245h-2.044v.8h1.333v.445h-1.778v-1.689h2.489v-1.333h.444v2.578h.8v-2.578h.444v2.578h.8v-2.578h.444V67.6zm-9.867 0h-.622v-.444h.622v.444zm6.223-2.489h-8.089v-.444h8.089v.444z" clip-path="url(#SVGID_2_)" fill="#fff"/><path d="M81.956 35.422h-.444v-1.778h2.933v1.244h2.044v-.8h-1.333v-.444h1.778v1.689H84v-1.244h-2.044v1.333zm11.2-.089h-2.933v-1.244h-2.044v.8h1.333v.444h-1.778v-1.689h2.489v-1.333h.444v2.578h.8v-2.578h.444v2.578h.8v-2.578h.444v3.022zm-9.867 0h-.622v-.444h.622v.444zm6.222-2.489h-8.089V32.4h8.089v.444z" clip-path="url(#SVGID_2_)" fill="#fff"/><path d="M93.244 36.889h-5.6v-.444h5.6v.444zm-6.222 0h-5.6v-.444h5.6v.444z" clip-path="url(#SVGID_2_)" fill="#fff"/><path d="M93.244 63.556h-5.6v-.444h5.6v.444zm-6.222 0h-5.6v-.444h5.6v.444z" clip-path="url(#SVGID_2_)" fill="#fff"/><path d="M81.956 67.689h-.444v-1.778h2.933v1.245h2.044v-.8h-1.333v-.444h1.778V67.6H84v-1.245h-2.044v1.334zm11.2-.089h-2.933v-1.245h-2.044v.8h1.333v.445h-1.778v-1.689h2.489v-1.333h.444v2.578h.8v-2.578h.444v2.578h.8v-2.578h.444V67.6zm-9.867 0h-.622v-.444h.622v.444zm6.222-2.489h-8.089v-.444h8.089v.444z" clip-path="url(#SVGID_2_)" fill="#fff"/><g clip-path="url(#SVGID_2_)"><path d="M56.011 52.508a9.12 9.12 0 0 0-2.726-9.732c3.028 4.481 1.936 10.533-2.407 13.686l.302-7.466v-5.878a3.088 3.088 0 0 1-1.18-.991c-.304.424-.71.765-1.18.991v5.878l.302 7.466c-4.343-3.153-5.436-9.205-2.407-13.686a9.121 9.121 0 0 0-2.726 9.732 9.09 9.09 0 0 0 4.443 5.259 9.985 9.985 0 0 1-3.914.596 9.075 9.075 0 0 0 4.691.251l.013.314L50 60l.778-1.071.013-.314a9.075 9.075 0 0 0 4.691-.251 10.009 10.009 0 0 1-3.914-.596 9.096 9.096 0 0 0 4.443-5.26z" fill="#da0000"/><path d="M58.975 46.177a7.641 7.641 0 0 0-4.758-3.588c4.414 3.319 5.303 9.588 1.984 14.002l-.017.022a7.639 7.639 0 0 0 2.791-10.436z" fill="#da0000"/><path d="M45.784 42.59a7.64 7.64 0 0 0-1.967 14.025l-.017-.022c-3.319-4.416-2.431-10.685 1.984-14.003z" fill="#da0000"/><path d="M47.989 42.038a1.443 1.443 0 0 0 2.011-.35 1.443 1.443 0 0 0 2.521-1.365 1.364 1.364 0 0 1-2.52.43 1.363 1.363 0 0 1-2.52-.43 1.441 1.441 0 0 0 .508 1.715z" fill="#da0000"/></g></g><metadata xmlns:d="https://loading.io/stock/"><d:name>Iran</d:name><d:tags>Iran,national flag,country,nation symbol</d:tags><d:license>by</d:license><d:slug>8n3w37</d:slug></metadata></svg>