<svg width="21" height="21" viewBox="0 0 21 21" fill="none" xmlns="http://www.w3.org/2000/svg">
<path fill-rule="evenodd" clip-rule="evenodd" d="M2 11C2 14.0246 2.7554 15.9258 3.91578 17.0852C5.07647 18.2449 6.98033 19 10.0087 19C13.0371 19 14.941 18.2449 16.1017 17.0852C17.1285 16.0592 17.8382 14.4523 17.988 12.0001C18.0216 11.4488 18.4651 11 19.0174 11C19.5697 11 20.0209 11.4502 19.991 12.0017C19.6656 18.0006 16.3382 21 10.0087 21C3.33624 21 0 17.6667 0 11C0 4.33333 3.33624 1 10.0087 1C14.928 1 18.0339 2.81176 19.3264 6.43529C19.5472 7.05414 19.0559 7.66667 18.3988 7.66667C17.9383 7.66667 17.5417 7.35638 17.3754 6.92689C17.0507 6.08831 16.616 5.4287 16.1017 4.91483C14.941 3.75514 13.0371 3 10.0087 3C6.98033 3 5.07647 3.75514 3.91578 4.91483C2.7554 6.0742 2 7.9754 2 11Z" fill="black"/>
<path d="M19.1833 1.83331V6.83331H14.179" stroke="black" stroke-width="2" stroke-linecap="round" stroke-linejoin="round"/>
</svg>
